<!DOCTYPE svg PUBLIC "-//W3C//DTD SVG 20010904//EN" "http://www.w3.org/TR/2001/REC-SVG-20010904/DTD/svg10.dtd">
<svg version="1.0" xmlns="http://www.w3.org/2000/svg" width="475px" height="1107px" viewBox="0 0 4750 11070" preserveAspectRatio="xMidYMid meet">
<g id="layer101" fill="#000000" stroke="none">
 <path d="M2680 11059 c-162 -20 -369 -82 -492 -146 -72 -37 -148 -97 -148 -116 0 -31 232 -192 380 -264 214 -105 383 -145 600 -145 123 0 160 4 242 25 106 28 273 97 368 153 43 25 70 34 93 32 29 -3 21 -9 -83 -60 -312 -154 -578 -327 -827 -540 -91 -77 -93 -78 -168 -89 l-76 -10 -57 51 c-164 148 -378 182 -688 109 -257 -60 -566 -226 -746 -401 -57 -55 -128 -149 -128 -169 0 -7 150 -67 220 -88 160 -48 405 -71 557 -52 312 38 516 142 749 378 71 72 108 103 124 103 19 0 -1 -25 -106 -132 -205 -209 -379 -428 -565 -711 -91 -139 -101 -151 -168 -194 -44 -28 -78 -43 -89 -39 -9 3 -48 17 -87 30 -144 52 -359 26 -538 -65 -164 -84 -389 -297 -551 -523 -100 -140 -171 -286 -192 -400 l-7 -39 174 6 c185 6 265 21 397 73 232 92 453 261 604 461 72 97 218 336 218 359 0 13 46 54 61 54 4 0 -11 -33 -33 -72 -118 -208 -320 -659 -404 -900 -47 -138 -94 -283 -105 -323 -6 -22 -19 -49 -29 -60 -9 -11 -34 -45 -54 -76 l-36 -55 -84 4 c-249 13 -502 -183 -724 -561 -165 -279 -282 -607 -282 -788 0 -71 -1 -71 120 -25 179 70 354 189 516 350 250 252 391 515 464 871 11 55 28 107 36 115 15 13 16 13 10 -5 -3 -11 -19 -87 -36 -170 -62 -312 -96 -604 -106 -925 -6 -164 -9 -191 -29 -235 -13 -27 -31 -69 -40 -91 -15 -39 -19 -42 -63 -48 -166 -22 -356 -214 -463 -467 -137 -326 -202 -636 -203 -974 -1 -194 5 -255 24 -255 16 0 163 121 235 194 139 140 221 255 320 449 68 132 98 210 135 354 38 147 51 277 49 504 -1 141 2 192 12 210 12 21 15 -2 20 -191 10 -333 35 -619 80 -919 15 -97 18 -140 10 -155 -5 -12 -17 -57 -26 -100 -8 -44 -16 -80 -18 -81 -103 -47 -205 -148 -264 -261 -91 -172 -127 -390 -127 -759 0 -269 11 -390 50 -555 25 -109 65 -230 74 -230 3 0 31 30 61 68 286 348 405 759 358 1238 -10 104 -54 343 -80 429 -8 26 -9 58 -4 90 10 59 7 66 56 -145 64 -276 162 -595 263 -852 44 -113 46 -122 46 -221 l0 -102 -55 -59 c-71 -77 -131 -200 -156 -320 -73 -354 71 -1066 283 -1399 16 -26 33 -47 37 -47 13 0 98 190 130 290 88 271 104 660 41 954 -30 138 -90 306 -154 433 -38 78 -56 124 -56 150 0 33 11 15 88 -142 148 -301 333 -614 496 -839 47 -65 50 -74 63 -169 l14 -100 -24 -26 c-64 -70 -100 -162 -118 -301 -23 -182 29 -454 129 -675 83 -182 212 -389 314 -502 78 -86 160 -162 175 -163 32 0 58 303 43 512 -17 239 -55 432 -120 604 -69 185 -173 358 -297 497 -29 33 -55 69 -58 81 -2 12 -6 37 -9 56 -7 41 -19 54 119 -121 178 -226 561 -635 677 -723 l38 -28 0 -78 c0 -211 131 -409 383 -579 59 -40 249 -130 337 -160 36 -13 132 -47 213 -78 82 -30 151 -52 154 -49 15 15 -54 204 -129 350 -163 317 -440 543 -743 607 -49 10 -111 19 -137 19 -45 0 -53 4 -150 88 -154 133 -426 422 -543 576 l-30 39 45 -7 c24 -4 45 -8 46 -9 1 -1 15 -29 32 -62 38 -76 108 -155 181 -204 172 -117 378 -147 681 -102 213 32 383 60 386 64 14 14 -161 197 -256 268 -89 68 -248 144 -350 170 -50 12 -135 23 -207 26 -104 5 -136 2 -218 -16 -52 -13 -127 -38 -165 -58 -61 -30 -76 -34 -113 -28 -23 4 -55 9 -72 10 -23 2 -41 15 -78 61 -64 78 -300 433 -373 559 -89 155 -161 289 -168 313 -7 21 -5 22 21 16 54 -13 71 -30 78 -84 20 -144 154 -306 318 -384 150 -72 331 -109 592 -120 66 -3 166 -9 223 -12 58 -4 102 -3 102 2 -1 39 -141 226 -255 339 -143 143 -286 230 -480 291 -82 26 -103 29 -230 28 -115 0 -151 -4 -203 -21 l-64 -21 -51 24 c-29 13 -61 24 -73 24 -17 0 -33 25 -84 132 -126 267 -224 524 -329 863 -75 243 -84 275 -76 275 3 0 22 -11 42 -25 36 -24 37 -25 40 -102 11 -292 152 -489 480 -672 102 -56 220 -107 419 -181 71 -27 156 -60 188 -74 32 -14 62 -24 67 -21 13 8 -66 224 -123 338 -102 205 -213 350 -367 478 -195 163 -364 236 -557 240 -77 2 -80 3 -124 42 -25 22 -55 44 -67 50 -18 8 -27 30 -48 121 -91 390 -138 752 -160 1211 l-6 130 36 -38 c30 -32 36 -44 30 -65 -4 -15 -9 -79 -12 -142 -6 -138 15 -246 72 -382 91 -218 249 -396 571 -647 87 -69 188 -149 222 -180 40 -34 66 -50 71 -43 13 21 -10 237 -39 367 -53 241 -114 395 -223 567 -154 243 -321 393 -531 475 -56 22 -87 40 -101 60 -11 15 -37 50 -59 77 l-39 48 6 227 c9 300 21 454 58 706 25 175 70 430 83 470 4 13 46 -83 46 -105 0 -10 -6 -23 -14 -29 -23 -19 -55 -121 -65 -205 -23 -190 24 -395 140 -614 83 -157 102 -184 462 -660 49 -64 92 -124 97 -132 5 -8 12 -12 15 -8 16 16 35 206 35 357 0 322 -62 577 -207 851 -98 185 -185 292 -317 391 -76 57 -88 70 -106 119 -11 30 -30 73 -42 96 l-21 41 27 109 c89 361 255 805 427 1144 l63 125 8 -53 c8 -53 8 -54 -32 -100 -115 -130 -183 -410 -155 -642 25 -219 83 -412 249 -826 53 -132 96 -248 96 -257 0 -20 13 -22 28 -4 16 20 91 212 112 290 90 329 97 605 26 923 -44 197 -100 328 -201 476 -49 71 -54 85 -70 177 l-17 100 50 83 c61 104 148 240 187 296 160 227 306 408 453 562 l91 95 0 -35 c1 -59 -8 -74 -69 -112 -102 -64 -226 -243 -273 -393 -39 -124 -54 -357 -38 -575 13 -166 80 -732 88 -740 9 -9 91 92 164 200 194 288 289 607 289 974 0 179 -29 340 -88 495 -18 46 -20 67 -15 153 l6 99 86 77 c277 251 574 453 895 609 49 24 91 42 93 39 2 -2 0 -21 -6 -43 -10 -37 -13 -39 -52 -40 -54 -3 -150 -49 -224 -110 -226 -185 -330 -452 -415 -1064 -12 -85 -28 -185 -36 -223 -8 -38 -12 -71 -9 -74 8 -8 52 15 145 75 311 202 504 475 607 858 25 92 27 117 29 325 2 149 7 243 16 279 l14 53 84 34 c232 93 562 188 760 219 25 4 55 13 67 21 24 15 50 91 36 104 -4 4 -48 1 -98 -6 -183 -27 -446 -96 -660 -172 l-110 -39 -82 15 c-74 14 -82 18 -96 46 -28 60 -106 152 -164 195 -112 85 -260 141 -423 161 -97 12 -334 11 -430 -1z"/>
 </g>

</svg>